<?xml version="1.0" standalone="no"?>
<!DOCTYPE svg PUBLIC "-//W3C//DTD SVG 20010904//EN"
 "http://www.w3.org/TR/2001/REC-SVG-20010904/DTD/svg10.dtd">
<svg version="1.0" xmlns="http://www.w3.org/2000/svg"
 width="352.000000pt" height="330.000000pt" viewBox="0 0 352.000000 330.000000"
 preserveAspectRatio="xMidYMid meet">

<g transform="translate(0.000000,330.000000) scale(0.100000,-0.100000)"
fill="#000000" stroke="none">
<path d="M1565 3289 c-387 -40 -767 -213 -1041 -472 -215 -204 -347 -405 -438
-666 -60 -171 -80 -299 -80 -501 0 -202 20 -330 80 -501 91 -261 223 -462 438
-666 676 -640 1796 -640 2472 0 215 204 347 405 438 666 60 171 80 299 80 501
0 202 -20 330 -80 501 -91 261 -223 462 -438 666 -370 351 -904 527 -1431 472z
m370 -259 c205 -23 376 -71 550 -155 372 -179 647 -482 763 -840 47 -146 57
-215 57 -395 -1 -148 -4 -177 -29 -275 -67 -261 -183 -463 -371 -647 -291
-283 -652 -435 -1080 -455 -440 -20 -873 134 -1181 419 -190 176 -310 359
-382 583 -47 146 -57 215 -57 395 1 148 4 176 29 275 72 282 192 481 410 683
333 309 821 464 1291 412z"/>
<path d="M1013 2323 c-18 -10 -195 -157 -393 -326 -239 -204 -362 -316 -366
-332 -3 -14 -3 -36 0 -50 4 -17 123 -125 372 -338 200 -171 377 -317 392 -324
87 -39 199 36 165 110 -7 14 -155 147 -330 297 -175 150 -318 276 -318 279 0
4 143 129 318 279 175 150 323 284 329 298 35 77 -86 154 -169 107z"/>
<path d="M2476 2324 c-41 -20 -55 -43 -56 -86 0 -41 -3 -37 345 -407 105 -111
190 -206 190 -211 0 -5 -34 -44 -75 -87 -137 -142 -395 -417 -428 -456 -43
-50 -44 -97 -3 -138 33 -33 82 -39 118 -14 29 20 595 622 610 649 28 48 17 83
-49 154 -205 223 -526 562 -553 583 -31 25 -68 30 -99 13z"/>
<path d="M904 1860 c-35 -14 -54 -50 -54 -101 0 -58 27 -96 75 -105 l35 -6 0
-74 c0 -116 15 -169 64 -219 57 -59 95 -68 286 -63 153 3 157 4 223 36 49 24
79 48 107 83 37 47 70 128 70 171 0 15 9 18 60 18 51 0 60 -3 60 -18 0 -43 33
-124 70 -171 28 -35 58 -59 107 -83 66 -32 70 -33 223 -36 191 -5 229 4 287
63 67 70 84 190 27 190 -15 0 -20 -10 -25 -53 -8 -61 -28 -96 -72 -122 -28
-18 -51 -20 -188 -20 -182 0 -227 11 -289 72 -63 60 -80 106 -80 218 l0 96 91
28 c124 37 183 46 327 46 174 0 200 -16 211 -135 5 -52 9 -60 28 -63 14 -2 23
3 27 16 4 13 19 22 41 26 48 9 75 47 75 107 0 36 -6 55 -24 76 l-24 28 -214 3
c-252 4 -329 -5 -494 -59 -66 -21 -140 -39 -163 -39 -23 0 -92 16 -153 36 -62
20 -146 42 -188 50 -85 15 -491 18 -526 4z m96 -57 c0 -5 -7 -17 -15 -27 -8
-11 -15 -31 -15 -44 0 -20 -4 -23 -27 -20 -24 2 -29 8 -31 36 -5 52 3 62 48
62 22 0 40 -3 40 -7z m420 -3 c29 -5 93 -22 141 -37 101 -31 93 -18 90 -153
-4 -117 -67 -208 -171 -245 -65 -23 -333 -21 -379 3 -66 33 -76 57 -79 207 -4
149 8 193 57 220 31 17 259 20 341 5z m1208 -38 c3 -36 0 -43 -20 -51 -29 -11
-38 -6 -38 23 0 12 -7 31 -15 42 -23 30 -18 35 28 32 42 -3 42 -3 45 -46z
m-800 -74 c3 -21 -2 -26 -27 -31 -51 -10 -91 2 -91 28 0 30 1 30 62 29 49 -1
53 -4 56 -26z"/>
<path d="M1298 1613 c-71 -71 -134 -136 -139 -146 -11 -19 4 -47 24 -47 12 0
264 247 278 273 11 19 -4 47 -24 47 -6 0 -68 -57 -139 -127z"/>
<path d="M2216 1601 c-129 -129 -148 -152 -137 -165 8 -9 18 -16 24 -16 6 0
75 64 154 142 103 103 143 149 141 163 -2 11 -10 21 -18 23 -8 1 -81 -64 -164
-147z"/>
</g>
</svg>
